<svg preserveAspectRatio="none" overflow="visible" style="display: block;" width="56" height="56" viewBox="0 0 56 56" fill="none" xmlns="http://www.w3.org/2000/svg">
<g id="Icon">
<rect width="56" height="56" rx="8" fill="#ECE5FF"/>
<g id="Group 2087330216">
<g id="Group 2087330189">
<path id="Subtract" d="M39.5099 21.3006V43.2762C39.5099 44.5354 38.4887 45.5562 37.2296 45.5565H12.6944C11.4353 45.5562 10.4142 44.5354 10.4142 43.2762V12.7225C10.4143 11.4634 11.4354 10.4424 12.6944 10.4422H28.6651L39.5099 21.3006Z" fill="url(#paint0_linear_0_4)"/>
<path id="Subtract_2" d="M39.5347 21.3773H30.2222C29.3386 21.3773 28.6226 20.6612 28.6226 19.7776V10.4407L39.5347 21.3773Z" fill="#724DDA"/>
</g>
<path id="Line 235 (Stroke)" d="M23.5001 20.7371C24.1927 20.7372 24.7534 21.2993 24.7534 21.9919C24.7534 22.6845 24.1927 23.2466 23.5001 23.2467H16.0641C15.3715 23.2467 14.8093 22.6845 14.8093 21.9919C14.8093 21.2993 15.3715 20.7371 16.0641 20.7371H23.5001Z" fill="white"/>
<path id="Line 237 (Stroke)" d="M20.1945 33.5446C20.8872 33.5446 21.4493 34.1068 21.4493 34.7994C21.4493 35.492 20.8872 36.0542 20.1945 36.0542H16.0641C15.3715 36.0542 14.8093 35.492 14.8093 34.7994C14.8093 34.1068 15.3715 33.5446 16.0641 33.5446H20.1945Z" fill="white"/>
<path id="Line 236 (Stroke)" d="M27.0107 27.1408C27.7033 27.1408 28.2655 27.703 28.2655 28.3956C28.2655 29.0882 27.7033 29.6504 27.0107 29.6504H16.0641C15.3715 29.6504 14.8093 29.0882 14.8093 28.3956C14.8093 27.703 15.3715 27.1408 16.0641 27.1408H27.0107Z" fill="white"/>
<g id="Group 2087330183">
<g id="Union">
</g>
</g>
</g>
<path id="&#244;&#128;&#153;&#167;" d="M39.5917 46.9728C39.5106 46.9728 39.4127 46.9559 39.2978 46.9221C39.1897 46.8951 39.0782 46.8478 38.9633 46.7802C37.6255 46.0167 36.5005 45.3444 35.5884 44.7634C34.6762 44.1823 33.9431 43.6249 33.3891 43.0911C32.835 42.5505 32.433 41.9728 32.183 41.358C31.933 40.7364 31.808 40.0033 31.808 39.1587V31.9324C31.808 31.4392 31.9093 31.0811 32.112 30.8581C32.3148 30.6351 32.6256 30.4392 33.0445 30.2702C33.3485 30.1486 33.7573 29.9898 34.2708 29.7939C34.7911 29.598 35.3417 29.3919 35.9228 29.1757C36.5107 28.9595 37.0613 28.7601 37.5748 28.5777C38.0951 28.3885 38.5073 28.2399 38.8113 28.1318C38.9397 28.098 39.0681 28.0676 39.1964 28.0405C39.3248 28.0135 39.4566 28 39.5917 28C39.7201 28 39.8485 28.0135 39.9768 28.0405C40.1052 28.0608 40.2336 28.0912 40.362 28.1318C40.666 28.2399 41.0748 28.3885 41.5883 28.5777C42.1086 28.7601 42.6592 28.9595 43.2403 29.1757C43.8282 29.3919 44.3822 29.598 44.9025 29.7939C45.4227 29.9898 45.8315 30.1486 46.1288 30.2702C46.5477 30.4459 46.8585 30.6452 47.0612 30.8682C47.2639 31.0844 47.3653 31.4392 47.3653 31.9324V39.1587C47.3653 40.0033 47.2437 40.7431 47.0004 41.3783C46.7639 42.0066 46.3721 42.5978 45.8248 43.1519C45.2775 43.6992 44.5444 44.26 43.6255 44.8343C42.7065 45.4086 41.5714 46.0573 40.2201 46.7802C40.1052 46.841 39.9904 46.8883 39.8755 46.9221C39.7674 46.9559 39.6728 46.9728 39.5917 46.9728Z" fill="url(#paint1_linear_0_4)"/>
<path id="&#244;&#128;&#153;&#167; (Stroke)" d="M47.3651 31.9329C47.3651 31.4397 47.264 31.0843 47.0613 30.8681C46.8586 30.6451 46.5474 30.4452 46.1285 30.2695L44.9026 29.7941L43.2407 29.1758C42.6597 28.9596 42.1082 28.7597 41.5879 28.5773L40.362 28.1322C40.2337 28.0916 40.1046 28.0613 39.9762 28.041C39.848 28.0141 39.72 28 39.5919 28C39.4568 28 39.3252 28.014 39.1969 28.041C39.0685 28.068 38.9394 28.0984 38.811 28.1322L37.5745 28.5773C37.0611 28.7596 36.5109 28.9596 35.9232 29.1758C35.3422 29.392 34.7907 29.5981 34.2705 29.7941C33.7573 29.9899 33.3485 30.148 33.0445 30.2695C32.6258 30.4384 32.3145 30.6346 32.1118 30.8574C31.9091 31.0804 31.808 31.4397 31.808 31.9329V39.1593L31.8141 39.4707C31.8415 40.1849 31.9646 40.8137 32.1832 41.3574C32.4332 41.9723 32.8353 42.5502 33.3894 43.0907C33.9434 43.6245 34.6769 44.1822 35.589 44.7632C36.5011 45.3442 37.6254 46.0172 38.9629 46.7806C39.0776 46.848 39.1893 46.8948 39.2972 46.9219C39.3548 46.9388 39.409 46.9514 39.4582 46.9599L39.5919 46.9735C39.6729 46.9735 39.7679 46.9556 39.8759 46.9219C39.9332 46.905 39.9903 46.8847 40.0476 46.8611L40.2208 46.7806C41.234 46.2385 42.1258 45.7383 42.8959 45.2797L43.6251 44.8346C44.544 44.2603 45.2774 43.6988 45.8247 43.1515C46.3718 42.5976 46.764 42.0069 47.0005 41.3787C47.2133 40.823 47.3324 40.1867 47.359 39.4707L47.3651 39.1593V31.9329ZM49.6422 39.1593C49.6421 40.2124 49.4903 41.2336 49.1303 42.1793C48.7647 43.1506 48.1802 44.0074 47.4441 44.7526L47.435 44.7617C46.7283 45.4684 45.8444 46.1331 44.8327 46.7654C43.857 47.3752 42.6741 48.0494 41.2948 48.7873L41.2856 48.7919C41.0579 48.9124 40.8129 49.0136 40.5534 49.0927L40.555 49.0957C40.5452 49.0988 40.5346 49.1003 40.5246 49.1033C40.5224 49.1039 40.5206 49.1057 40.5185 49.1063L40.517 49.1048C40.2736 49.1782 39.9556 49.2491 39.5919 49.2491C39.2169 49.2491 38.8902 49.1751 38.6561 49.1063V49.1033C38.3371 49.0138 38.0528 48.887 37.8084 48.7433V48.7418C36.4623 47.9731 35.3116 47.2866 34.3646 46.6834C33.3721 46.0511 32.5065 45.4028 31.8095 44.7313L31.7989 44.7207C31.0575 43.9973 30.4592 43.1651 30.0732 42.2157L30.0702 42.2081C29.6874 41.2563 29.5309 40.2218 29.5309 39.1593V31.9329C29.5309 31.2124 29.6644 30.1651 30.4271 29.3262L30.6277 29.1226C31.1089 28.668 31.6744 28.3669 32.1923 28.158L32.1984 28.1565C32.5187 28.0284 32.9409 27.8651 33.4593 27.6673L33.4684 27.6628C33.9917 27.4657 34.5452 27.2586 35.1287 27.0415L35.1363 27.0384C35.7309 26.8197 36.2909 26.6179 36.8134 26.4323C37.3279 26.2452 37.7403 26.0968 38.0485 25.9872L38.1396 25.9538L38.2323 25.9295C38.3966 25.8862 38.5618 25.8474 38.7275 25.8125L39.1589 25.7457C39.3032 25.7308 39.4477 25.7229 39.5919 25.7229L40.0233 25.7457C40.1266 25.7566 40.2282 25.7773 40.3301 25.7958L40.3317 25.7912C40.3596 25.7956 40.3874 25.803 40.4152 25.8079C40.4252 25.81 40.4356 25.8104 40.4456 25.8125L40.4441 25.814C40.6491 25.8514 40.8505 25.8993 41.0472 25.9614L41.0866 25.9735L41.1246 25.9872C41.4335 26.097 41.8402 26.2447 42.3414 26.4293C42.8741 26.616 43.435 26.8206 44.0246 27.0399L44.0261 27.0384C44.6186 27.2564 45.1784 27.4645 45.7047 27.6628L46.9914 28.1625L47.0096 28.1701C47.5841 28.411 48.2139 28.765 48.7201 29.311H48.7216C48.7242 29.3138 48.7266 29.3173 48.7292 29.3201C48.7345 29.3259 48.7407 29.331 48.7459 29.3368H48.7444C49.514 30.1756 49.6422 31.2284 49.6422 31.9329V39.1593Z" fill="white"/>
<g id="Group 2087330301">
<path id="Line 213 (Stroke)" d="M40.5806 40.6228C40.5804 41.1793 40.1285 41.6299 39.5719 41.6299C39.0154 41.6299 38.5635 41.1793 38.5633 40.6228L38.5633 33.9023C38.5633 33.3456 39.0152 32.8936 39.5719 32.8936C40.1286 32.8936 40.5806 33.3456 40.5806 33.9023L40.5806 40.6228Z" fill="white"/>
<path id="Line 214 (Stroke)" d="M36.2117 38.2713C35.6552 38.271 35.2045 37.8192 35.2045 37.2626C35.2045 36.7061 35.6552 36.2542 36.2117 36.2539L42.9322 36.2539C43.4889 36.2539 43.9408 36.7059 43.9408 37.2626C43.9408 37.8193 43.4889 38.2713 42.9322 38.2713L36.2117 38.2713Z" fill="white"/>
</g>
</g>
<defs>
<linearGradient id="paint0_linear_0_4" x1="10.6017" y1="11.7799" x2="32.2191" y2="41.5425" gradientUnits="userSpaceOnUse">
<stop stop-color="#B296FF"/>
<stop offset="1" stop-color="#9C79FF"/>
</linearGradient>
<linearGradient id="paint1_linear_0_4" x1="36.5093" y1="30.8245" x2="50.301" y2="42.4234" gradientUnits="userSpaceOnUse">
<stop stop-color="#00D664"/>
<stop offset="1" stop-color="#00B957"/>
</linearGradient>
</defs>
</svg>
